<svg id="Group_1824" data-name="Group 1824" xmlns="http://www.w3.org/2000/svg" width="28.581" height="31.06" viewBox="0 0 28.581 31.06">
  <path id="Path_303" data-name="Path 303" d="M26.89,8.751l4.966,1.332,7.458,2A2.09,2.09,0,0,1,41,14.114a2.478,2.478,0,0,1-.095.717q-1.244,4.683-2.5,9.361c-.018.067-.045.132-.076.224l-1.012-.253-.273,1.008,1.018.284c-.2.766-.406,1.523-.609,2.278q-1.391,5.191-2.785,10.383A2.1,2.1,0,0,1,32.515,39.8a5.376,5.376,0,0,1-1.093-.227q-3.16-.839-6.318-1.693a.529.529,0,0,1-.243-.124h2.1c.486,0,.972.014,1.455-.01a2.1,2.1,0,0,0,1.988-1.97.527.527,0,0,0,0-.095,13.294,13.294,0,0,1,.753-4.874c.458-1.716.905-3.435,1.367-5.191l-1.02-.284-1.042,3.949-.045-.01V16.758c.312.084.615.15.9.253.077.027.135.162.165.258.41,1.321.823,2.64,1.209,3.967a.535.535,0,0,0,.473.446c.189.029.368.095.568.143V17.659a4.582,4.582,0,0,0,.635.149,1.709,1.709,0,0,1,1.574,1.224c.143.41.467.515.878.541-.031-.5-.053-.989-.095-1.479a.875.875,0,0,1,.162-.621c.284-.409.555-.834.833-1.256a.836.836,0,0,0-1.037.037,1.706,1.706,0,0,1-1.952.268,5.237,5.237,0,0,0-.688-.2l2.178-3.6c-.314-.084-.58-.173-.852-.219a.436.436,0,0,0-.3.133q-1.56,1.442-3.1,2.9a.412.412,0,0,1-.209.13.4.4,0,0,1-.245-.015c-.3-.095-.6-.167-.905-.246a2.186,2.186,0,0,1-1.042-.5,1.948,1.948,0,0,0-1.408-.455H23.494a2.055,2.055,0,0,1,.032-.241c.334-1.258.663-2.517,1.009-3.773A2.113,2.113,0,0,1,26.184,8.8a.429.429,0,0,0,.1-.054Zm7.687,17.423L31.561,37.426l1.024.274L35.6,26.447Zm-3.405-3.662L30.9,23.535l1.015.273.276-1.016Zm2.049.552-.277,1.018,1.023.276.271-1.02Zm2.79,1.841.274-1.02-1.02-.271-.27,1.019Z" transform="translate(-12.415 -8.747)" fill="#494d64"/>
  <path id="Path_304" data-name="Path 304" d="M11.794,37.09V15.913c.1-.007.209-.02.315-.02H27.455c.882,0,1.285.4,1.286,1.275V35.822a1.106,1.106,0,0,1-.038.507,1.1,1.1,0,0,1-1.193.763H12.075ZM26.618,24.355a6.377,6.377,0,1,0-1.852,4.49,6.362,6.362,0,0,0,1.852-4.49m-1.081,9.564H14.992v1.032H25.537Z" transform="translate(-11.794 -9.127)" fill="#494d64"/>
  <rect id="Rectangle_33" data-name="Rectangle 33" width="3.063" height="2.616" transform="translate(6.935 13.929)" fill="#494d64"/>
  <path id="Path_305" data-name="Path 305" d="M23.5,23.444c.779,0,1.555,0,2.33.008a.285.285,0,0,1,.116.062.266.266,0,0,1,.074.108,4.594,4.594,0,0,1,0,2.306.258.258,0,0,1-.075.1.265.265,0,0,1-.115.059c-.775.011-1.552.008-2.329.008Z" transform="translate(-12.416 -9.528)" fill="#494d64"/>
  <path id="Path_306" data-name="Path 306" d="M17.817,23.444V26.1c-.641,0-1.3.007-1.967,0s-.493.116-.627-.525a4.334,4.334,0,0,1,.071-1.95c.017-.068.105-.168.162-.169.784-.012,1.569-.009,2.361-.009" transform="translate(-11.972 -9.528)" fill="#494d64"/>
  <path id="Path_307" data-name="Path 307" d="M21.969,27.389a8.692,8.692,0,0,1-1.089,2.764.249.249,0,0,1-.44,0,8.7,8.7,0,0,1-1.093-2.764Z" transform="translate(-12.195 -9.737)" fill="#494d64"/>
  <path id="Path_308" data-name="Path 308" d="M21.973,22.155H19.347a8.645,8.645,0,0,1,1.095-2.772.245.245,0,0,1,.089-.1.238.238,0,0,1,.126-.037.241.241,0,0,1,.128.033.239.239,0,0,1,.092.095,8.611,8.611,0,0,1,1.1,2.779" transform="translate(-12.195 -9.305)" fill="#494d64"/>
  <path id="Path_309" data-name="Path 309" d="M18.859,29.976a5.06,5.06,0,0,1-3.05-2.582,1.268,1.268,0,0,1,.2-.032h1.815c.139,0,.238.008.289.183.241.815.5,1.628.748,2.432" transform="translate(-12.007 -9.736)" fill="#494d64"/>
  <path id="Path_310" data-name="Path 310" d="M22.436,29.993c.255-.831.507-1.664.769-2.492a.218.218,0,0,1,.065-.086.224.224,0,0,1,.1-.047c.7-.009,1.4-.006,2.157-.006a5.272,5.272,0,0,1-3.089,2.631" transform="translate(-12.359 -9.736)" fill="#494d64"/>
  <path id="Path_311" data-name="Path 311" d="M22.434,19.55a5.278,5.278,0,0,1,3.091,2.633c-.751,0-1.453,0-2.153-.006a.224.224,0,0,1-.163-.132c-.263-.83-.518-1.664-.775-2.5" transform="translate(-12.359 -9.321)" fill="#494d64"/>
  <path id="Path_312" data-name="Path 312" d="M18.888,19.537,18,22.164H15.782a5.291,5.291,0,0,1,3.106-2.627" transform="translate(-12.006 -9.32)" fill="#494d64"/>
</svg>
