<svg id="Group_1820" data-name="Group 1820" xmlns="http://www.w3.org/2000/svg" width="25.497" height="25.197" viewBox="0 0 25.497 25.197">
  <path id="Path_286" data-name="Path 286" d="M21.066,34.393l14.582-12.2a7.084,7.084,0,0,0,1.986-2.907l1.142-2.5a1.592,1.592,0,0,0-2.04-2.04l-2.5,1.142a7.084,7.084,0,0,0-2.907,1.986L19.365,32.152H14.574a1.248,1.248,0,0,0-.877.364l-.213.213a.354.354,0,0,0-.021.489.353.353,0,0,0,.147.1l3.807,1.4a.969.969,0,0,0,.276.8l.294.294a.968.968,0,0,0,.616.28l1.3,3.511a.361.361,0,0,0,.1.147.369.369,0,0,0,.159.079.361.361,0,0,0,.178-.008.349.349,0,0,0,.152-.093l.213-.213a1.236,1.236,0,0,0,.363-.876Z" transform="translate(-13.375 -14.644)" fill="#141c27"/>
  <path id="Path_287" data-name="Path 287" d="M27.845,19.779,16.73,18.041a1.353,1.353,0,0,0-1.168.382l-.468.468a.372.372,0,0,0-.089.146.36.36,0,0,0,.188.434l9.226,4.4Z" transform="translate(-13.219 -14.317)" fill="#141c27"/>
  <path id="Path_288" data-name="Path 288" d="M33.668,35.589,31.943,24.571l-4.07,3.407,4.363,9.149a.36.36,0,0,0,.107.132.347.347,0,0,0,.157.068.357.357,0,0,0,.17-.012.362.362,0,0,0,.146-.088l.472-.47a1.353,1.353,0,0,0,.381-1.167" transform="translate(-11.975 -13.685)" fill="#141c27"/>
</svg>
