<svg id="Group_1823" data-name="Group 1823" xmlns="http://www.w3.org/2000/svg" width="31.331" height="32.275" viewBox="0 0 31.331 32.275">
  <path id="Path_296" data-name="Path 296" d="M35.8,35.909H13.569V33.588h20.27l4-23.255h7.016v2.319H39.8Z" transform="translate(-13.526 -10.333)" fill="#494d64"/>
  <path id="Path_297" data-name="Path 297" d="M26.735,16.127h-1.4V14.79H20.194v1.337h-1.4V13.388h7.941Z" transform="translate(-13.112 -10.091)" fill="#494d64"/>
  <path id="Path_298" data-name="Path 298" d="M18.05,17.232H15.824a2.3,2.3,0,0,0-2.295,2.3v8.958a2.295,2.295,0,0,0,2.295,2.3H18.05Z" transform="translate(-13.529 -9.786)" fill="#494d64"/>
  <rect id="Rectangle_31" data-name="Rectangle 31" width="7.771" height="13.553" transform="translate(5.921 7.445)" fill="#494d64"/>
  <path id="Path_299" data-name="Path 299" d="M29.432,17.232H27.513V30.785h1.919a2.3,2.3,0,0,0,2.3-2.3V19.531a2.295,2.295,0,0,0-2.3-2.3" transform="translate(-12.42 -9.786)" fill="#494d64"/>
  <path id="Path_300" data-name="Path 300" d="M16.143,40.615a2.58,2.58,0,1,1,1.824-.756,2.576,2.576,0,0,1-1.824.756" transform="translate(-13.526 -8.34)" fill="#494d64"/>
  <path id="Path_301" data-name="Path 301" d="M31.308,40.615a2.58,2.58,0,1,1,1.824-.756,2.576,2.576,0,0,1-1.824.756" transform="translate(-12.323 -8.34)" fill="#494d64"/>
</svg>
