<svg id="Group_1822" data-name="Group 1822" xmlns="http://www.w3.org/2000/svg" width="23.674" height="29.787" viewBox="0 0 23.674 29.787">
  <path id="Path_294" data-name="Path 294" d="M33.762,12.957H21.41a5.661,5.661,0,0,0-5.661,5.66v14.2a5.661,5.661,0,0,0,5.661,5.661H33.763a5.661,5.661,0,0,0,5.66-5.661v-14.2a5.66,5.66,0,0,0-5.661-5.66M20.378,34.4a1.651,1.651,0,1,1,1.167-.484,1.654,1.654,0,0,1-1.167.484M26.553,24.4a1.4,1.4,0,0,1-1.4,1.4h-5.53a1.4,1.4,0,0,1-1.4-1.4V20.883A1.379,1.379,0,0,1,19.6,19.5h5.576a1.381,1.381,0,0,1,1.38,1.38Zm-.618-8.569a1.654,1.654,0,1,1,.485,1.166,1.654,1.654,0,0,1-.485-1.166ZM34.792,34.4a1.651,1.651,0,1,1,1.167-.484,1.654,1.654,0,0,1-1.167.484ZM36.938,24.4a1.4,1.4,0,0,1-1.4,1.4H30.007a1.4,1.4,0,0,1-1.4-1.4V20.883a1.381,1.381,0,0,1,1.38-1.38h5.574a1.381,1.381,0,0,1,1.38,1.38Z" transform="translate(-15.749 -12.957)" fill="#494d64"/>
  <rect id="Rectangle_29" data-name="Rectangle 29" width="10.875" height="2.264" transform="translate(6.639 27.523)" fill="#494d64"/>
</svg>
