<svg id="Group_1879" data-name="Group 1879" xmlns="http://www.w3.org/2000/svg" xmlns:xlink="http://www.w3.org/1999/xlink" width="35.883" height="37.865" viewBox="0 0 35.883 37.865">
  <defs>
    <clipPath id="clip-path">
      <rect id="Rectangle_2" data-name="Rectangle 2" width="35.883" height="37.865" fill="#012b5d"/>
    </clipPath>
  </defs>
  <g id="Group_18" data-name="Group 18" clip-path="url(#clip-path)">
    <path id="Path_171" data-name="Path 171" d="M26.092,35.375q-6.648,0-13.3,0c-2.339,0-3.442-1.8-2.2-3.755a16.493,16.493,0,0,0,2.662-10.082,16.088,16.088,0,0,1,1.094-7.812A12.849,12.849,0,0,1,22.5,6.465a1.052,1.052,0,0,0,.9-1.013,2.792,2.792,0,0,1,5.55-.021,1.055,1.055,0,0,0,.883,1.029A13.083,13.083,0,0,1,39.1,18.765c.017,1.07.061,2.143-.006,3.209a15.3,15.3,0,0,0,2.557,9.463,3.628,3.628,0,0,1,.562,1.333,2.264,2.264,0,0,1-2.458,2.6q-6.831.012-13.663,0" transform="translate(-8.232 -2.415)" fill="#012b5d"/>
    <path id="Path_172" data-name="Path 172" d="M144.337,12.751c0,.158,0,.311,0,.464.008.579-.139,1.07-.829,1.071-.664,0-.864-.454-.877-1.046a11.742,11.742,0,0,0-1.868-5.945,12.055,12.055,0,0,0-7.122-5.53c-.59-.168-.935-.482-.79-1.1.151-.645.636-.754,1.217-.6a13.68,13.68,0,0,1,8.007,6.012,13.351,13.351,0,0,1,2.262,6.674" transform="translate(-108.455 0)" fill="#012b5d"/>
    <path id="Path_173" data-name="Path 173" d="M0,12.794C.246,7.421,4.685,1.741,9.806.274c.2-.059.453-.179.62-.113.376.148.882.312,1.03.617.252.519-.1.932-.658,1.071A11.547,11.547,0,0,0,5,5.493a12.383,12.383,0,0,0-3.285,7.756c-.036.607-.142,1.14-.87,1.149-.756.01-.854-.547-.842-1.146,0-.152,0-.305,0-.457" transform="translate(0 -0.116)" fill="#012b5d"/>
    <path id="Path_174" data-name="Path 174" d="M80.317,187.226c1.037,0,2.074-.021,3.11.005.825.021.992.3.654,1.026a4.015,4.015,0,0,1-3.74,2.481,4.117,4.117,0,0,1-3.828-2.5c-.305-.68-.105-1,.6-1.011,1.067-.019,2.134,0,3.2-.006" transform="translate(-62.365 -152.876)" fill="#012b5d"/>
  </g>
</svg>
