<svg xmlns="http://www.w3.org/2000/svg" width="22.007" height="19.884" viewBox="0 0 22.007 19.884">
  <g id="Group_2207" data-name="Group 2207" transform="translate(-262.551 -86.558)">
    <path id="Path_279" data-name="Path 279" d="M14.568,18.882a2.236,2.236,0,1,0-2.236-2.236,2.236,2.236,0,0,0,2.236,2.236" transform="translate(252.004 74.854)" fill="#fff"/>
    <path id="Path_280" data-name="Path 280" d="M16.18,22.565H11.147c-1.115,0-1.841,1.516-1.343,2.8l2.84,7.326a1.07,1.07,0,0,0,2.04,0l2.839-7.328c.5-1.285-.228-2.8-1.343-2.8" transform="translate(252.907 72.114)" fill="#fff"/>
    <path id="Path_281" data-name="Path 281" d="M32.138,14.805a2.236,2.236,0,1,0-.855-.17,2.236,2.236,0,0,0,.855.17" transform="translate(246.1 76.224)" fill="#fff"/>
    <path id="Path_282" data-name="Path 282" d="M33.92,21.305l.007-.017c.5-1.288-.226-2.8-1.343-2.8H27.552c-1.115,0-1.841,1.515-1.343,2.8l.007.017h-2.47v1.878H36.39V21.305Z" transform="translate(248.168 73.485)" fill="#fff"/>
    <path id="Path_283" data-name="Path 283" d="M23.747,37.86A1.153,1.153,0,0,0,24.9,39.014h7.4a1.153,1.153,0,0,0,1.154-1.154V36.508H23.747Z" transform="translate(248.168 67.428)" fill="#fff"/>
    <path id="Path_284" data-name="Path 284" d="M32.3,29.862H30.6V28.486H26.6v1.376H24.9a1.154,1.154,0,0,0-1.154,1.154v1.352h9.706V31.016A1.154,1.154,0,0,0,32.3,29.862m-4.787-.469h2.176v.469H27.512Z" transform="translate(248.168 70.124)" fill="#fff"/>
  </g>
</svg>
