<svg xmlns="http://www.w3.org/2000/svg" width="16.121" height="15.931" viewBox="0 0 16.121 15.931">
  <g id="Group_1880" data-name="Group 1880" transform="translate(-22 -83.564)">
    <path id="Path_286" data-name="Path 286" d="M18.238,27.131l9.22-7.715a4.479,4.479,0,0,0,1.256-1.838l.722-1.584a1.006,1.006,0,0,0-1.29-1.29l-1.584.722a4.479,4.479,0,0,0-1.838,1.256l-7.561,9.032h-3.03a.789.789,0,0,0-.555.23l-.135.135a.224.224,0,0,0-.013.309.223.223,0,0,0,.093.064l2.407.887a.612.612,0,0,0,.175.506l.186.186a.612.612,0,0,0,.39.177l.82,2.22a.228.228,0,0,0,.064.093.233.233,0,0,0,.1.05.228.228,0,0,0,.112,0,.221.221,0,0,0,.1-.059l.135-.135a.781.781,0,0,0,.229-.554Z" transform="translate(8.625 68.92)" fill="#fff"/>
    <path id="Path_287" data-name="Path 287" d="M23.117,19.134l-7.027-1.1a.855.855,0,0,0-.738.241l-.3.3a.235.235,0,0,0-.056.092.228.228,0,0,0,.119.275l5.834,2.782Z" transform="translate(8.13 67.883)" fill="#fff"/>
    <path id="Path_288" data-name="Path 288" d="M31.537,31.537l-1.091-6.966-2.574,2.154,2.759,5.784a.228.228,0,0,0,.068.083.219.219,0,0,0,.1.043.226.226,0,0,0,.107-.008A.229.229,0,0,0,31,32.573l.3-.3a.855.855,0,0,0,.241-.738" transform="translate(4.179 65.876)" fill="#fff"/>
  </g>
</svg>
