<svg xmlns="http://www.w3.org/2000/svg" width="16.492" height="18.883" viewBox="0 0 16.492 18.883">
  <g id="Group_2206" data-name="Group 2206" transform="translate(-199.921 -87.558)">
    <path id="Path_290" data-name="Path 290" d="M22.811,13.927H27.2v1.142h1.2V12.732H21.616v2.337h1.2Z" transform="translate(183.163 74.826)" fill="#fff"/>
    <rect id="Rectangle_26" data-name="Rectangle 26" width="16.122" height="1.835" transform="translate(200.106 104.607)" fill="#fff"/>
    <path id="Path_291" data-name="Path 291" d="M16.716,29.309h1.9V17.734h-1.9a1.961,1.961,0,0,0-1.96,1.96v7.654a1.96,1.96,0,0,0,1.961,1.961" transform="translate(185.166 73.366)" fill="#fff"/>
    <rect id="Rectangle_27" data-name="Rectangle 27" width="6.636" height="11.574" transform="translate(204.982 91.1)" fill="#fff"/>
    <path id="Path_292" data-name="Path 292" d="M34.6,17.734H32.963V29.308H34.6a1.961,1.961,0,0,0,1.96-1.961V19.693a1.959,1.959,0,0,0-1.96-1.959" transform="translate(179.851 73.366)" fill="#fff"/>
  </g>
</svg>
