<svg xmlns="http://www.w3.org/2000/svg" width="15.008" height="18.883" viewBox="0 0 15.008 18.883">
  <g id="Group_2205" data-name="Group 2205" transform="translate(-142.119 -87.558)">
    <path id="Path_294" data-name="Path 294" d="M27.168,12.957H19.338a3.589,3.589,0,0,0-3.589,3.588v9a3.589,3.589,0,0,0,3.589,3.589h7.831a3.589,3.589,0,0,0,3.588-3.589v-9a3.588,3.588,0,0,0-3.589-3.588m-8.485,13.6a1.046,1.046,0,1,1,.74-.307,1.049,1.049,0,0,1-.74.307M22.6,20.208a.89.89,0,0,1-.889.889H18.2a.89.89,0,0,1-.889-.889V17.982a.874.874,0,0,1,.874-.875h3.535a.875.875,0,0,1,.875.875Zm-.392-5.432a1.049,1.049,0,1,1,.308.739,1.049,1.049,0,0,1-.308-.739Zm5.615,11.777a1.046,1.046,0,1,1,.74-.307,1.049,1.049,0,0,1-.74.307Zm1.361-6.344a.89.89,0,0,1-.889.889H24.788a.89.89,0,0,1-.889-.889V17.982a.875.875,0,0,1,.875-.875h3.533a.875.875,0,0,1,.875.875Z" transform="translate(126.37 74.601)" fill="#fff"/>
    <rect id="Rectangle_29" data-name="Rectangle 29" width="6.894" height="1.435" transform="translate(146.328 105.006)" fill="#fff"/>
  </g>
</svg>
