<svg xmlns="http://www.w3.org/2000/svg" width="19.302" height="19.884" viewBox="0 0 19.302 19.884">
  <g id="Group_2204" data-name="Group 2204" transform="translate(-83.16 -86.558)">
    <path id="Path_296" data-name="Path 296" d="M27.262,26.089H13.569V24.66H26.057l2.466-14.327h4.322v1.429H29.727Z" transform="translate(69.618 76.225)" fill="#fff"/>
    <path id="Path_297" data-name="Path 297" d="M23.685,15.076h-.864v-.824H19.655v.824h-.864V13.388h4.892Z" transform="translate(67.869 75.201)" fill="#fff"/>
    <path id="Path_298" data-name="Path 298" d="M16.314,17.232H14.943a1.414,1.414,0,0,0-1.414,1.414v5.519a1.414,1.414,0,0,0,1.414,1.414h1.372Z" transform="translate(69.631 73.914)" fill="#fff"/>
    <rect id="Rectangle_31" data-name="Rectangle 31" width="4.788" height="8.35" transform="translate(86.809 91.145)" fill="#fff"/>
    <path id="Path_299" data-name="Path 299" d="M28.7,17.232H27.513v8.35H28.7a1.414,1.414,0,0,0,1.414-1.414V18.648A1.414,1.414,0,0,0,28.7,17.232" transform="translate(64.946 73.914)" fill="#fff"/>
    <path id="Path_300" data-name="Path 300" d="M15.152,38.634a1.589,1.589,0,1,1,1.124-.465,1.587,1.587,0,0,1-1.124.465" transform="translate(69.62 67.807)" fill="#fff"/>
    <path id="Path_301" data-name="Path 301" d="M30.317,38.634a1.589,1.589,0,1,1,1.124-.465,1.587,1.587,0,0,1-1.124.465" transform="translate(64.539 67.807)" fill="#fff"/>
  </g>
</svg>
