<svg xmlns="http://www.w3.org/2000/svg" width="19.774" height="21.488" viewBox="0 0 19.774 21.488">
  <g id="Group_2208" data-name="Group 2208" transform="translate(-328.822 -84.953)">
    <path id="Path_303" data-name="Path 303" d="M25.843,8.75l3.436.922,5.16,1.384a1.446,1.446,0,0,1,1.164,1.4,1.714,1.714,0,0,1-.066.5q-.861,3.24-1.731,6.476c-.012.047-.031.091-.052.155l-.7-.175-.189.7.7.2c-.141.53-.281,1.053-.421,1.576q-.962,3.592-1.927,7.183a1.455,1.455,0,0,1-1.486,1.168,3.72,3.72,0,0,1-.756-.157q-2.186-.581-4.371-1.171a.366.366,0,0,1-.168-.086h1.454c.336,0,.672.01,1.007-.007a1.451,1.451,0,0,0,1.376-1.363.364.364,0,0,0,0-.066,9.2,9.2,0,0,1,.521-3.372c.317-1.187.626-2.377.946-3.591l-.706-.2-.721,2.732-.031-.007v-8.66c.216.058.425.1.625.175.053.019.094.112.114.179.284.914.569,1.826.837,2.745a.37.37,0,0,0,.328.309c.131.02.255.066.393.1V14.913a3.17,3.17,0,0,0,.44.1,1.183,1.183,0,0,1,1.089.847c.1.284.323.356.607.374-.022-.343-.037-.684-.066-1.023a.605.605,0,0,1,.112-.43c.2-.283.384-.577.576-.869a.578.578,0,0,0-.717.026,1.181,1.181,0,0,1-1.35.185,3.623,3.623,0,0,0-.476-.136L32.3,11.5c-.217-.058-.4-.12-.59-.151a.3.3,0,0,0-.21.092q-1.079,1-2.147,2a.285.285,0,0,1-.145.09.279.279,0,0,1-.17-.01c-.206-.066-.417-.115-.626-.17a1.513,1.513,0,0,1-.721-.347,1.347,1.347,0,0,0-.974-.314H23.494a1.422,1.422,0,0,1,.022-.167c.231-.871.459-1.741.7-2.611a1.462,1.462,0,0,1,1.141-1.131.3.3,0,0,0,.071-.037ZM31.161,20.8l-2.086,7.785.708.189,2.086-7.785ZM28.806,18.27l-.189.708.7.189.191-.7Zm1.418.382-.192.7.708.191.187-.706Zm1.931,1.274.189-.706-.706-.187-.187.7Z" transform="translate(312.993 76.206)" fill="#fff"/>
    <path id="Path_304" data-name="Path 304" d="M11.794,30.558V15.907c.071,0,.145-.014.218-.014H22.629c.61,0,.889.278.89.882V29.681a.765.765,0,0,1-.026.35.764.764,0,0,1-.825.528H11.794Zm10.256-8.81a4.412,4.412,0,1,0-1.281,3.106,4.4,4.4,0,0,0,1.281-3.106M21.3,28.364h-7.3v.714h7.3Z" transform="translate(317.028 73.741)" fill="#fff"/>
    <rect id="Rectangle_33" data-name="Rectangle 33" width="2.119" height="1.81" transform="translate(333.62 94.59)" fill="#fff"/>
    <path id="Path_305" data-name="Path 305" d="M23.5,23.444c.539,0,1.076,0,1.612.005a.2.2,0,0,1,.08.043.184.184,0,0,1,.051.075,3.178,3.178,0,0,1,0,1.6.179.179,0,0,1-.052.072.183.183,0,0,1-.079.041c-.537.008-1.074.005-1.612.005Z" transform="translate(312.99 71.137)" fill="#fff"/>
    <path id="Path_306" data-name="Path 306" d="M16.994,23.444v1.834c-.443,0-.9,0-1.361,0s-.341.081-.434-.363a3,3,0,0,1,.049-1.349c.012-.047.073-.116.112-.117.542-.009,1.085-.006,1.633-.006" transform="translate(315.872 71.137)" fill="#fff"/>
    <path id="Path_307" data-name="Path 307" d="M21.161,27.389a6.014,6.014,0,0,1-.753,1.912.173.173,0,0,1-.3,0,6.019,6.019,0,0,1-.756-1.912Z" transform="translate(314.423 69.777)" fill="#fff"/>
    <path id="Path_308" data-name="Path 308" d="M21.164,21.259H19.347a5.981,5.981,0,0,1,.757-1.918.17.17,0,0,1,.062-.067.165.165,0,0,1,.087-.026.167.167,0,0,1,.088.023.165.165,0,0,1,.064.066,5.958,5.958,0,0,1,.759,1.923" transform="translate(314.423 72.584)" fill="#fff"/>
    <path id="Path_309" data-name="Path 309" d="M17.919,29.171a3.5,3.5,0,0,1-2.11-1.786.877.877,0,0,1,.137-.022H17.2c.1,0,.164.005.2.126.166.564.345,1.126.518,1.682" transform="translate(315.643 69.786)" fill="#fff"/>
    <path id="Path_310" data-name="Path 310" d="M22.436,29.182c.176-.575.35-1.151.532-1.724a.151.151,0,0,1,.045-.06.155.155,0,0,1,.067-.033c.485-.007.97,0,1.492,0a3.647,3.647,0,0,1-2.137,1.821" transform="translate(313.357 69.786)" fill="#fff"/>
    <path id="Path_311" data-name="Path 311" d="M22.434,19.55a3.652,3.652,0,0,1,2.138,1.822c-.519,0-1,0-1.49,0a.155.155,0,0,1-.113-.091c-.182-.575-.358-1.151-.536-1.727" transform="translate(313.358 72.48)" fill="#fff"/>
    <path id="Path_312" data-name="Path 312" d="M17.931,19.537l-.611,1.817H15.782a3.66,3.66,0,0,1,2.149-1.817" transform="translate(315.652 72.485)" fill="#fff"/>
  </g>
</svg>
