<?xml version="1.0" encoding="utf-8"?>
<!-- Generator: Adobe Illustrator 24.1.1, SVG Export Plug-In . SVG Version: 6.00 Build 0)  -->
<svg version="1.1" id="Layer_1" xmlns="http://www.w3.org/2000/svg" xmlns:xlink="http://www.w3.org/1999/xlink" x="0px" y="0px"
	 viewBox="0 0 234.1 43.5" style="enable-background:new 0 0 234.1 43.5;" xml:space="preserve">
<style type="text/css">
	.st0{fill:#878787;}
</style>
<g>
	<path id="ic_flight_takeoff_24px" class="st0" d="M1,40.4h29.8v3.1H1V40.4z M31.7,25.7c-0.3-1.2-1.6-2-2.9-1.7l0,0l-8.3,2.2
		L9.7,16.2l-3,0.8l6.5,11.2l-7.8,2.1l-3.1-2.4L0,28.5l2.8,5l1.2,2.1l2.5-0.7l8.3-2.2l6.8-1.8l8.3-2.2C31.3,28.3,32,27,31.7,25.7
		L31.7,25.7z"/>
	<path id="ic_flight_land_24px" class="st0" d="M206.4,40.6h27.7v2.9h-27.7V40.6z M216.9,32.3l6.3,1.8l7.8,2
		c1.2,0.3,2.4-0.4,2.7-1.5c0.3-1.2-0.4-2.4-1.5-2.7l-7.8-2.1l-4-13.2l-2.8-0.7v12.1l-7.3-1.9l-1.4-3.4l-2.1-0.6v7.5l2.3,0.6
		L216.9,32.3z"/>
	<g id="Path_465">
		<path class="st0" d="M39.3,24.8L38.7,24c2.7-2,5.5-3.8,8.5-5.5l0.5,0.9C44.8,21,42,22.8,39.3,24.8z M199.7,24.5
			c-2.9-1.7-5.9-3.3-8.8-4.7l0.5-0.9c2.9,1.5,5.9,3.1,8.8,4.8L199.7,24.5z M181.9,15.5c-3.1-1.4-6.1-2.6-9.2-3.8l0.4-0.9
			c3.1,1.2,6.2,2.5,9.3,3.8L181.9,15.5z M56.5,14.7L56,13.8c3-1.4,6.1-2.8,9.2-4l0.4,0.9C62.5,12,59.4,13.3,56.5,14.7z M163.3,8.3
			c-3.2-1-6.4-1.9-9.6-2.7l0.2-1c3.2,0.8,6.4,1.7,9.6,2.7L163.3,8.3z M75,7.4l-0.3-0.9c3.2-1,6.4-1.9,9.7-2.7l0.2,1
			C81.4,5.6,78.2,6.4,75,7.4z M144,3.4c-3.3-0.6-6.6-1.1-9.9-1.5l0.1-1c3.3,0.4,6.6,0.9,9.9,1.5L144,3.4z M94.4,2.8l-0.2-1
			c3.3-0.5,6.6-1,10-1.3l0.1,1C101,1.9,97.7,2.3,94.4,2.8z M124.2,1.2c-2.3-0.1-4.6-0.2-6.9-0.2c-1,0-2.1,0-3.1,0V0c1,0,2.1,0,3.1,0
			c2.3,0,4.6,0.1,6.9,0.2L124.2,1.2z"/>
	</g>
</g>
</svg>
