<svg xmlns="http://www.w3.org/2000/svg" width="22.167" height="21" viewBox="0 0 22.167 21">
  <path id="ic_account_balance_wallet_24px" d="M24,20.5v1.167A2.34,2.34,0,0,1,21.667,24H5.333A2.333,2.333,0,0,1,3,21.667V5.333A2.333,2.333,0,0,1,5.333,3H21.667A2.34,2.34,0,0,1,24,5.333V6.5H13.5a2.333,2.333,0,0,0-2.333,2.333v9.333A2.333,2.333,0,0,0,13.5,20.5ZM13.5,18.167H25.167V8.833H13.5Zm4.667-2.917a1.75,1.75,0,1,1,1.75-1.75A1.748,1.748,0,0,1,18.167,15.25Z" transform="translate(-3 -3)" fill="#fff"/>
</svg>
