<svg width="51" height="52" viewBox="0 0 51 52" fill="none" xmlns="http://www.w3.org/2000/svg">
<path d="M41 0H10C4.47715 0 0 4.47715 0 10V42C0 47.5228 4.47715 52 10 52H41C46.5228 52 51 47.5228 51 42V10C51 4.47715 46.5228 0 41 0Z" fill="#FFC839"/>
<path d="M15.699 21.145C17.5586 21.145 19.066 19.6375 19.066 17.778C19.066 15.9185 17.5586 14.411 15.699 14.411C13.8395 14.411 12.332 15.9185 12.332 17.778C12.332 19.6375 13.8395 21.145 15.699 21.145Z" fill="#141933"/>
<path d="M19.488 22.565H11.908C10.228 22.565 9.13501 24.848 9.88601 26.787L14.163 37.821C14.2668 38.1469 14.4716 38.4314 14.7477 38.6332C15.0238 38.8351 15.357 38.9439 15.699 38.9439C16.0411 38.9439 16.3742 38.8351 16.6504 38.6332C16.9265 38.4314 17.1312 38.1469 17.235 37.821L21.511 26.784C22.263 24.848 21.168 22.565 19.488 22.565Z" fill="#141933"/>
<path d="M33.269 17.068C33.9349 17.068 34.5859 16.8705 35.1396 16.5006C35.6933 16.1306 36.1249 15.6047 36.3797 14.9895C36.6346 14.3743 36.7012 13.6973 36.5713 13.0441C36.4414 12.391 36.1207 11.7911 35.6498 11.3202C35.179 10.8493 34.579 10.5286 33.9259 10.3987C33.2728 10.2688 32.5958 10.3355 31.9805 10.5903C31.3653 10.8451 30.8394 11.2767 30.4695 11.8304C30.0995 12.3841 29.902 13.0351 29.902 13.701C29.902 14.1432 29.9891 14.581 30.1583 14.9895C30.3275 15.398 30.5755 15.7692 30.8882 16.0818C31.2008 16.3945 31.572 16.6425 31.9805 16.8117C32.389 16.9809 32.8269 17.068 33.269 17.068V17.068Z" fill="#141933"/>
<path d="M39.07 22.733L39.08 22.707C39.832 20.767 38.739 18.485 37.058 18.485H29.478C27.798 18.485 26.705 20.767 27.456 22.707L27.466 22.733H23.746V25.561H42.789V22.733H39.07Z" fill="#141933"/>
<path d="M23.747 38.544C23.747 38.7722 23.792 38.9982 23.8793 39.2091C23.9667 39.42 24.0947 39.6115 24.2561 39.7729C24.4175 39.9343 24.6091 40.0624 24.8199 40.1497C25.0308 40.237 25.2568 40.282 25.485 40.282H36.628C36.8563 40.282 37.0823 40.237 37.2931 40.1497C37.504 40.0624 37.6956 39.9343 37.857 39.7729C38.0184 39.6115 38.1464 39.42 38.2337 39.2091C38.3211 38.9982 38.366 38.7722 38.366 38.544V36.508H23.747V38.544Z" fill="#141933"/>
<path d="M36.628 30.559H34.062V28.486H28.05V30.559H25.485C25.0241 30.559 24.582 30.7421 24.2561 31.068C23.9301 31.394 23.747 31.8361 23.747 32.297V34.333H38.366V32.297C38.366 31.8361 38.1829 31.394 37.857 31.068C37.531 30.7421 37.089 30.559 36.628 30.559V30.559ZM29.418 30.559V29.853H32.695V30.559H29.418Z" fill="#141933"/>
</svg>
