<svg width="51" height="52" viewBox="0 0 51 52" fill="none" xmlns="http://www.w3.org/2000/svg">
<path d="M41 0H10C4.47715 0 0 4.47715 0 10V42C0 47.5228 4.47715 52 10 52H41C46.5228 52 51 47.5228 51 42V10C51 4.47715 46.5228 0 41 0Z" fill="#FFC839"/>
<path d="M20.3891 32.6537L33.6869 21.5253C34.5042 20.8084 35.1273 19.8968 35.4985 18.875L36.5394 16.5911C36.6337 16.3315 36.6519 16.0503 36.5921 15.7807C36.5322 15.5111 36.3966 15.2641 36.2013 15.0688C36.006 14.8735 35.759 14.7379 35.4894 14.678C35.2197 14.6181 34.9386 14.6364 34.679 14.7307L32.395 15.7716C31.3732 16.1427 30.4614 16.7655 29.7441 17.5825L18.8377 30.6102L14.4678 30.6102C14.3192 30.6101 14.1721 30.6394 14.0348 30.6963C13.8976 30.7532 13.773 30.8366 13.668 30.9418L13.4743 31.1356C13.4347 31.1739 13.4055 31.2216 13.3894 31.2743C13.3734 31.3269 13.371 31.3828 13.3824 31.4367C13.3939 31.4905 13.4188 31.5406 13.4549 31.5822C13.491 31.6238 13.5371 31.6555 13.5888 31.6744L17.0614 32.9535C17.0453 33.0863 17.0596 33.221 17.1032 33.3474C17.1468 33.4738 17.2186 33.5887 17.3132 33.6833L17.5812 33.9513C17.7315 34.1015 17.9312 34.1922 18.1433 34.2065L19.3249 37.409C19.3439 37.4606 19.3757 37.5064 19.4172 37.5424C19.4588 37.5783 19.5088 37.6031 19.5625 37.6145C19.6163 37.6258 19.672 37.6234 19.7246 37.6074C19.7771 37.5914 19.8247 37.5623 19.863 37.5229L20.0567 37.3291C20.162 37.2242 20.2454 37.0996 20.3023 36.9623C20.3592 36.8251 20.3885 36.678 20.3884 36.5294L20.3891 32.6537Z" fill="#141933"/>
<path d="M26.7127 19.6253L16.5771 18.04C16.3845 18.0098 16.1876 18.0257 16.0024 18.0862C15.8172 18.1468 15.6489 18.2504 15.5114 18.3886L15.0844 18.8156C15.0473 18.8528 15.0196 18.8984 15.0037 18.9485C14.9878 18.9985 14.9841 19.0517 14.993 19.1035C15.0019 19.1553 15.023 19.2042 15.0546 19.2461C15.0863 19.2881 15.1275 19.3218 15.1749 19.3446L23.5887 23.3574L26.7127 19.6253Z" fill="#141933"/>
<path d="M33.158 34.6195L31.5854 24.5715L27.8731 27.6785L31.852 36.0217C31.8747 36.069 31.9085 36.1103 31.9504 36.1419C31.9924 36.1735 32.0413 36.1947 32.0931 36.2035C32.1448 36.2124 32.198 36.2087 32.2481 36.1928C32.2982 36.1769 32.3437 36.1493 32.3809 36.1122L32.8108 35.6823C32.9483 35.545 33.0514 35.3771 33.1117 35.1924C33.172 35.0078 33.1879 34.8115 33.158 34.6195V34.6195Z" fill="#141933"/>
</svg>
