<svg width="52" height="52" viewBox="0 0 52 52" fill="none" xmlns="http://www.w3.org/2000/svg">
<path d="M42 0H10C4.47715 0 0 4.47715 0 10V42C0 47.5228 4.47715 52 10 52H42C47.5228 52 52 47.5228 52 42V10C52 4.47715 47.5228 0 42 0Z" fill="#FFC839"/>
<path d="M23.303 14.419H29.503V16.032H31.193V12.732H21.616V16.032H23.306L23.303 14.419Z" fill="#141933"/>
<path d="M37.785 36.809H15.017V39.4H37.785V36.809Z" fill="#141933"/>
<path d="M17.525 34.081H20.209V17.734H17.523C16.7889 17.734 16.0848 18.0256 15.5657 18.5447C15.0466 19.0638 14.755 19.7679 14.755 20.502V31.312C14.7549 31.6757 14.8264 32.036 14.9656 32.372C15.1047 32.7081 15.3088 33.0134 15.5661 33.2706C15.8234 33.5278 16.1288 33.7317 16.4649 33.8708C16.801 34.0098 17.1613 34.0812 17.525 34.081V34.081Z" fill="#141933"/>
<path d="M21.904 34.08H31.275V17.734H21.904V34.08Z" fill="#141933"/>
<path d="M35.277 17.734H32.963V34.08H35.277C36.0112 34.0797 36.7153 33.7879 37.2344 33.2686C37.7534 32.7493 38.045 32.0452 38.045 31.311V20.501C38.0448 19.7671 37.753 19.0632 37.2339 18.5443C36.7149 18.0255 36.011 17.734 35.277 17.734V17.734Z" fill="#141933"/>
</svg>
