<svg width="53" height="52" viewBox="0 0 53 52" fill="none" xmlns="http://www.w3.org/2000/svg">
<path d="M43 0H10C4.47715 0 0 4.47715 0 10V42C0 47.5228 4.47715 52 10 52H43C48.5228 52 53 47.5228 53 42V10C53 4.47715 48.5228 0 43 0Z" fill="#FFC839"/>
<path d="M32.273 12.957H20.942C19.5649 12.957 18.2442 13.504 17.2703 14.4776C16.2965 15.4513 15.7493 16.7719 15.749 18.149V31.175C15.749 32.5523 16.2961 33.8731 17.27 34.847C18.2439 35.8209 19.5647 36.368 20.942 36.368H32.274C33.6511 36.3677 34.9717 35.8205 35.9454 34.8466C36.919 33.8728 37.466 32.5521 37.466 31.175V18.149C37.466 17.4671 37.3317 16.7919 37.0707 16.1619C36.8097 15.5319 36.4272 14.9595 35.9449 14.4773C35.4627 13.9952 34.8902 13.6128 34.2602 13.352C33.6302 13.0911 32.9549 12.9569 32.273 12.957ZM19.995 32.63C19.6956 32.63 19.4028 32.5412 19.1539 32.3748C18.9049 32.2085 18.7108 31.972 18.5963 31.6954C18.4817 31.4187 18.4517 31.1143 18.5101 30.8206C18.5685 30.527 18.7127 30.2572 18.9244 30.0454C19.1362 29.8337 19.406 29.6895 19.6996 29.6311C19.9933 29.5726 20.2978 29.6027 20.5744 29.7172C20.851 29.8318 21.0875 30.0259 21.2538 30.2749C21.4202 30.5238 21.509 30.8165 21.509 31.116C21.509 31.5175 21.3495 31.9026 21.0655 32.1865C20.7816 32.4705 20.3965 32.63 19.995 32.63ZM25.66 23.45C25.66 23.791 25.5245 24.1182 25.2833 24.3593C25.0422 24.6005 24.7151 24.736 24.374 24.736H19.301C18.96 24.736 18.6328 24.6005 18.3917 24.3593C18.1505 24.1182 18.015 23.791 18.015 23.45V20.228C18.015 19.8924 18.1482 19.5705 18.3854 19.3332C18.6226 19.0958 18.9444 18.9623 19.28 18.962H24.395C24.7308 18.962 25.0528 19.0954 25.2902 19.3328C25.5276 19.5702 25.661 19.8922 25.661 20.228L25.66 23.45ZM25.093 15.589C25.093 15.2896 25.1818 14.9969 25.3481 14.7479C25.5145 14.4989 25.7509 14.3049 26.0276 14.1903C26.3042 14.0757 26.6087 14.0457 26.9023 14.1041C27.196 14.1625 27.4658 14.3067 27.6775 14.5185C27.8893 14.7302 28.0335 14.9999 28.0919 15.2936C28.1503 15.5873 28.1203 15.8917 28.0057 16.1684C27.8911 16.445 27.6971 16.6815 27.4481 16.8479C27.1991 17.0142 26.9064 17.103 26.607 17.103C26.2058 17.1025 25.8212 16.9427 25.5377 16.6588C25.2542 16.375 25.095 15.9902 25.095 15.589H25.093ZM33.218 32.63C32.9186 32.63 32.6259 32.5412 32.3769 32.3748C32.1279 32.2085 31.9338 31.972 31.8192 31.6954C31.7046 31.4187 31.6747 31.1143 31.7331 30.8206C31.7915 30.527 31.9357 30.2572 32.1475 30.0454C32.3592 29.8337 32.6289 29.6895 32.9226 29.6311C33.2163 29.5726 33.5207 29.6027 33.7974 29.7172C34.074 29.8318 34.3105 30.0259 34.4769 30.2749C34.6432 30.5238 34.732 30.8165 34.732 31.116C34.732 31.5174 34.5726 31.9023 34.2889 32.1862C34.0052 32.4701 33.6204 32.6298 33.219 32.63H33.218ZM35.187 23.45C35.187 23.791 35.0515 24.1182 34.8104 24.3593C34.5692 24.6005 34.2421 24.736 33.901 24.736H28.829C28.4879 24.736 28.1608 24.6005 27.9197 24.3593C27.6785 24.1182 27.543 23.791 27.543 23.45V20.228C27.543 19.8922 27.6764 19.5702 27.9138 19.3328C28.1512 19.0954 28.4733 18.962 28.809 18.962H33.922C34.2578 18.962 34.5798 19.0954 34.8172 19.3328C35.0546 19.5702 35.188 19.8922 35.188 20.228L35.187 23.45Z" fill="#141933"/>
<path d="M31.815 38.205H21.839V40.282H31.815V38.205Z" fill="#141933"/>
</svg>
