<svg width="53" height="52" viewBox="0 0 53 52" fill="none" xmlns="http://www.w3.org/2000/svg">
<path d="M43 0H10C4.47715 0 0 4.47715 0 10V42C0 47.5228 4.47715 52 10 52H43C48.5228 52 53 47.5228 53 42V10C53 4.47715 48.5228 0 43 0Z" fill="#FFC839"/>
<path d="M34.162 34.029H13.569V31.879H32.349L36.057 10.333H42.557V12.482H37.869L34.162 34.029Z" fill="#141933"/>
<path d="M26.151 15.926H24.851V14.687H20.091V15.926H18.791V13.388H26.148L26.151 15.926Z" fill="#141933"/>
<path d="M17.718 17.232H15.655C15.091 17.2323 14.5503 17.4565 14.1516 17.8553C13.7529 18.2542 13.529 18.7951 13.529 19.359V27.659C13.5289 27.9383 13.5838 28.2148 13.6906 28.4729C13.7973 28.7309 13.9539 28.9654 14.1513 29.163C14.3487 29.3605 14.5832 29.5172 14.8412 29.6241C15.0992 29.731 15.3757 29.786 15.655 29.786H17.718V17.232Z" fill="#141933"/>
<path d="M26.215 17.231H19.015V29.788H26.215V17.231Z" fill="#141933"/>
<path d="M29.291 17.232H27.513V29.789H29.291C29.8551 29.789 30.3961 29.5649 30.795 29.166C31.1939 28.7671 31.418 28.2261 31.418 27.662V19.362C31.4184 19.0824 31.3637 18.8055 31.2569 18.5471C31.1502 18.2887 30.9936 18.0539 30.7961 17.8561C30.5985 17.6582 30.3639 17.5013 30.1056 17.3942C29.8474 17.2871 29.5706 17.232 29.291 17.232V17.232Z" fill="#141933"/>
<path d="M15.953 40.236C15.4803 40.236 15.0182 40.0958 14.6252 39.8332C14.2321 39.5706 13.9258 39.1973 13.7449 38.7606C13.564 38.3238 13.5167 37.8433 13.6089 37.3797C13.7011 36.9161 13.9287 36.4903 14.263 36.156C14.5972 35.8218 15.0231 35.5941 15.4867 35.5019C15.9503 35.4097 16.4309 35.457 16.8676 35.6379C17.3043 35.8188 17.6776 36.1251 17.9402 36.5181C18.2028 36.9112 18.343 37.3732 18.343 37.8459C18.343 38.4798 18.0912 39.0877 17.643 39.5359C17.1948 39.9842 16.5868 40.236 15.953 40.236V40.236Z" fill="#141933"/>
<path d="M31.118 40.236C30.6453 40.236 30.1832 40.0958 29.7901 39.8332C29.3971 39.5706 29.0908 39.1973 28.9099 38.7606C28.729 38.3238 28.6817 37.8433 28.7739 37.3797C28.8661 36.9161 29.0937 36.4903 29.428 36.156C29.7622 35.8218 30.1881 35.5941 30.6517 35.5019C31.1153 35.4097 31.5959 35.457 32.0326 35.6379C32.4693 35.8188 32.8426 36.1251 33.1052 36.5181C33.3678 36.9112 33.508 37.3732 33.508 37.8459C33.508 38.4798 33.2562 39.0877 32.808 39.5359C32.3598 39.9842 31.7518 40.236 31.118 40.236V40.236Z" fill="#141933"/>
</svg>
