<svg width="53" height="52" viewBox="0 0 53 52" fill="none" xmlns="http://www.w3.org/2000/svg">
<path d="M43 0H10C4.47715 0 0 4.47715 0 10V42C0 47.5228 4.47715 52 10 52H43C48.5228 52 53 47.5228 53 42V10C53 4.47715 48.5228 0 43 0Z" fill="#FFC839"/>
<path d="M27.08 8.75099L32.325 10.158C34.9503 10.862 37.5757 11.5663 40.201 12.271C40.6984 12.37 41.1465 12.6371 41.4701 13.0275C41.7937 13.418 41.9731 13.9079 41.978 14.415C41.9819 14.6709 41.9482 14.9259 41.878 15.172C41.002 18.4687 40.121 21.764 39.235 25.058C39.216 25.129 39.188 25.197 39.155 25.295L38.086 25.028L37.798 26.093L38.873 26.393C38.657 27.202 38.444 28.001 38.23 28.799C37.2507 32.4537 36.2704 36.1087 35.289 39.764C35.1853 40.2826 34.8999 40.7472 34.4841 41.0741C34.0683 41.401 33.5495 41.5687 33.021 41.547C32.6291 41.5072 32.2423 41.4268 31.867 41.307C29.6417 40.7157 27.4177 40.1197 25.195 39.519C25.0993 39.4987 25.0107 39.4535 24.938 39.388C25.678 39.388 26.418 39.388 27.158 39.388C27.671 39.388 28.184 39.403 28.695 39.377C29.2397 39.3497 29.7552 39.1223 30.1427 38.7385C30.5302 38.3547 30.7625 37.8414 30.795 37.297C30.798 37.2637 30.798 37.2303 30.795 37.197C30.7367 35.4468 31.0064 33.7011 31.59 32.05C32.074 30.238 32.546 28.422 33.034 26.568L31.957 26.268L30.857 30.438L30.81 30.427V17.207C31.14 17.296 31.459 17.365 31.764 17.474C31.845 17.503 31.907 17.645 31.938 17.747C32.371 19.142 32.807 20.535 33.215 21.937C33.2352 22.0595 33.295 22.1719 33.3854 22.257C33.4757 22.3421 33.5916 22.3952 33.715 22.408C33.915 22.439 34.104 22.508 34.315 22.559V18.159C34.5346 18.2274 34.7589 18.2798 34.986 18.316C35.3634 18.3308 35.7267 18.4635 36.0248 18.6954C36.3229 18.9273 36.5409 19.2468 36.648 19.609C36.799 20.042 37.141 20.153 37.575 20.18C37.542 19.656 37.519 19.136 37.475 18.618C37.4466 18.3855 37.5078 18.151 37.646 17.962C37.946 17.53 38.232 17.081 38.526 16.636C38.3658 16.5183 38.1705 16.458 37.9717 16.4651C37.773 16.4722 37.5825 16.5462 37.431 16.675C37.159 16.9297 36.8147 17.0937 36.4455 17.1444C36.0764 17.1951 35.7006 17.1299 35.37 16.958C35.1326 16.8727 34.8897 16.8035 34.643 16.751L36.943 12.951C36.611 12.862 36.33 12.768 36.043 12.72C35.9222 12.7232 35.8074 12.7734 35.723 12.86C34.625 13.8747 33.5323 14.8947 32.445 15.92C32.3874 15.9874 32.3103 16.0353 32.2243 16.0569C32.1383 16.0786 32.0477 16.073 31.965 16.041C31.65 15.941 31.328 15.865 31.009 15.781C30.6014 15.7063 30.2214 15.5232 29.909 15.251C29.4957 14.9018 28.9615 14.7294 28.422 14.771C26.906 14.771 25.3897 14.771 23.873 14.771H23.494C23.5001 14.6854 23.5115 14.6002 23.528 14.516C23.881 13.187 24.228 11.858 24.594 10.531C24.6842 10.1047 24.897 9.71411 25.2064 9.40726C25.5157 9.10041 25.908 8.89072 26.335 8.804C26.3736 8.78975 26.4103 8.77059 26.444 8.74699L27.08 8.75099ZM35.198 27.151L32.013 39.035L33.094 39.324L36.278 27.44L35.198 27.151ZM31.602 23.284L31.314 24.365L32.386 24.653L32.677 23.58L31.602 23.284ZM33.766 23.867L33.473 24.942L34.553 25.233L34.839 24.156L33.766 23.867ZM36.713 25.811L37.002 24.734L35.925 24.448L35.64 25.524L36.713 25.811Z" fill="#141933"/>
<path d="M11.794 38.279V15.914C11.903 15.907 12.015 15.893 12.127 15.893C17.527 15.893 22.929 15.893 28.333 15.893C29.264 15.893 29.69 16.317 29.691 17.24C29.691 23.806 29.691 30.3727 29.691 36.94C29.7195 37.119 29.7059 37.3021 29.6513 37.475C29.5967 37.6478 29.5026 37.8055 29.3764 37.9356C29.2503 38.0658 29.0955 38.1647 28.9245 38.2247C28.7534 38.2846 28.5708 38.3039 28.391 38.281C22.957 38.281 17.5237 38.281 12.091 38.281L11.794 38.279ZM27.45 24.83C27.4472 23.5007 27.0501 22.2021 26.3088 21.0987C25.5676 19.9952 24.5157 19.1365 23.2861 18.6312C22.0566 18.1259 20.7048 17.9969 19.4018 18.2603C18.0989 18.5237 16.9034 19.1679 15.9668 20.1111C15.0301 21.0544 14.3944 22.2543 14.1401 23.5591C13.8858 24.8638 14.0243 26.2147 14.5382 27.4407C15.0521 28.6666 15.9181 29.7125 17.0268 30.446C18.1354 31.1795 19.4367 31.5675 20.766 31.561C22.5428 31.5478 24.2423 30.8329 25.4943 29.5721C26.7463 28.3113 27.4493 26.6068 27.45 24.83ZM26.308 34.93H15.171V36.02H26.308V34.93Z" fill="#141933"/>
<path d="M19.118 23.457H22.353V26.22H19.118V23.457Z" fill="#141933"/>
<path d="M23.5 23.444C24.323 23.444 25.142 23.444 25.961 23.452C26.0063 23.4635 26.0481 23.4858 26.0829 23.517C26.1178 23.5481 26.1445 23.5873 26.161 23.631C26.3679 24.4295 26.3679 25.2675 26.161 26.066C26.144 26.1087 26.1169 26.1466 26.0821 26.1765C26.0473 26.2065 26.0057 26.2276 25.961 26.238C25.142 26.25 24.322 26.246 23.501 26.246L23.5 23.444Z" fill="#141933"/>
<path d="M17.967 23.444V26.244C17.29 26.244 16.59 26.251 15.89 26.244C15.19 26.237 15.369 26.367 15.228 25.69C15.0963 25.0069 15.122 24.3027 15.303 23.631C15.321 23.559 15.414 23.454 15.474 23.453C16.302 23.44 17.131 23.444 17.967 23.444Z" fill="#141933"/>
<path d="M22.116 27.389C21.9031 28.4208 21.5141 29.4082 20.966 30.308C20.9434 30.35 20.9099 30.3851 20.8689 30.4095C20.828 30.434 20.7812 30.4469 20.7335 30.4469C20.6858 30.4469 20.639 30.434 20.5981 30.4095C20.5571 30.3851 20.5236 30.35 20.501 30.308C19.9517 29.4084 19.5613 28.421 19.347 27.389H22.116Z" fill="#141933"/>
<path d="M22.12 22.318H19.347C19.5597 21.2824 19.9509 20.2916 20.503 19.39C20.5243 19.3477 20.5567 19.3121 20.5968 19.287C20.6369 19.2619 20.6831 19.2482 20.7304 19.2475C20.7777 19.2468 20.8243 19.259 20.8651 19.2829C20.906 19.3068 20.9395 19.3414 20.962 19.383C21.5164 20.2862 21.9083 21.2796 22.12 22.318Z" fill="#141933"/>
<path d="M19.03 30.123C18.3361 29.9109 17.6927 29.5597 17.1389 29.0909C16.5852 28.622 16.1327 28.0454 15.809 27.396C15.8776 27.3791 15.9475 27.3678 16.018 27.362C16.657 27.362 17.296 27.362 17.935 27.362C18.082 27.362 18.186 27.37 18.24 27.555C18.494 28.416 18.767 29.274 19.03 30.123Z" fill="#141933"/>
<path d="M22.436 30.141C22.705 29.263 22.971 28.384 23.248 27.509C23.2634 27.4735 23.287 27.4422 23.3169 27.4176C23.3468 27.3931 23.3822 27.3761 23.42 27.368C24.161 27.358 24.901 27.362 25.698 27.362C25.3645 28.0175 24.9046 28.6006 24.3448 29.0776C23.7849 29.5545 23.1362 29.9159 22.436 30.141V30.141Z" fill="#141933"/>
<path d="M22.434 19.55C23.1349 19.7748 23.7843 20.1363 24.3445 20.6136C24.9048 21.091 25.3648 21.6747 25.698 22.331C24.905 22.331 24.164 22.331 23.424 22.325C23.3863 22.3173 23.351 22.3007 23.3211 22.2765C23.2911 22.2523 23.2674 22.2213 23.252 22.186C22.974 21.309 22.705 20.429 22.434 19.55Z" fill="#141933"/>
<path d="M19.062 19.537L18.129 22.311H15.782C16.1186 21.655 16.5817 21.0722 17.1447 20.5961C17.7076 20.12 18.3593 19.76 19.062 19.537V19.537Z" fill="#141933"/>
</svg>
