<svg xmlns="http://www.w3.org/2000/svg" width="16.203" height="16.203" viewBox="0 0 16.203 16.203"><path d="M10.1,2a8.1,8.1,0,1,0,8.1,8.1A8.1,8.1,0,0,0,10.1,2Zm1.142,13.035v1.547H9.081V15.019a3.014,3.014,0,0,1-2.649-2.755H8.019c.081.851.664,1.515,2.147,1.515,1.588,0,1.944-.794,1.944-1.288,0-.672-.356-1.3-2.163-1.734-2.009-.486-3.386-1.312-3.386-2.973a2.808,2.808,0,0,1,2.52-2.6V3.62h2.163V5.2a2.864,2.864,0,0,1,2.309,2.746H11.965c-.041-.9-.519-1.515-1.8-1.515-1.215,0-1.944.551-1.944,1.329,0,.681.527,1.126,2.163,1.547s3.386,1.126,3.386,3.168c-.008,1.483-1.118,2.293-2.528,2.56Z" transform="translate(-2 -2)" fill="#fff"/></svg>