<svg xmlns="http://www.w3.org/2000/svg" width="19.586" height="12.464" viewBox="0 0 19.586 12.464">
  <path id="ic_group_24px" d="M14.354,10.342a2.671,2.671,0,1,0-2.671-2.671A2.66,2.66,0,0,0,14.354,10.342Zm-7.122,0A2.671,2.671,0,1,0,4.561,7.671,2.66,2.66,0,0,0,7.232,10.342Zm0,1.781C5.158,12.122,1,13.164,1,15.238v2.226H13.464V15.238C13.464,13.164,9.306,12.122,7.232,12.122Zm7.122,0c-.258,0-.552.018-.864.045a3.757,3.757,0,0,1,1.754,3.071v2.226h5.342V15.238C20.586,13.164,16.428,12.122,14.354,12.122Z" transform="translate(-1 -5)" fill="#fff"/>
</svg>
