<svg xmlns="http://www.w3.org/2000/svg" xmlns:xlink="http://www.w3.org/1999/xlink" width="15.264" height="19.173" viewBox="0 0 15.264 19.173"><defs><clipPath id="a"><rect width="15.264" height="19.173" fill="#fff"/></clipPath></defs><g clip-path="url(#a)"><path d="M3.831,3.744a9.474,9.474,0,0,1,.229-1.089A3.587,3.587,0,0,1,7.1.045a3.606,3.606,0,0,1,3.412,1.31,3.679,3.679,0,0,1,.873,2.089c.032.3.029.3.327.3q.884,0,1.767,0a1.908,1.908,0,0,1,.269.019.491.491,0,0,1,.459.5c.055.652.119,1.3.179,1.956.054.586.105,1.172.159,1.758.073.8.148,1.6.22,2.395.053.591.1,1.182.152,1.773s.11,1.181.158,1.772q.083,1.014.154,2.03c.018.26.02.522.034.782a2,2,0,0,1-.742,1.652,2.7,2.7,0,0,1-1.579.747c-.477.039-.958.041-1.438.041-2.879,0-5.758-.009-8.636,0a3.031,3.031,0,0,1-2.142-.8A1.949,1.949,0,0,1,0,16.78q.064-1.1.14-2.2c.033-.469.077-.936.119-1.4.072-.794.147-1.587.219-2.381.052-.576.1-1.153.151-1.73S.742,7.9.794,7.321.9,6.158.946,5.577c.04-.463.078-.926.123-1.389a.443.443,0,0,1,.4-.416,2.128,2.128,0,0,1,.3-.024c.637,0,1.273,0,1.91,0h.15m.024.971c-.2,0-.356,0-.518,0-.418.007-.835.017-1.253.025-.083,0-.133.033-.139.124-.017.256-.038.511-.059.766-.031.383-.061.766-.095,1.149-.052.586-.108,1.171-.16,1.757-.033.369-.059.738-.092,1.107-.053.6-.111,1.19-.163,1.786s-.1,1.192-.15,1.787c-.054.624-.111,1.247-.167,1.871-.035.4-.08.793-.1,1.191a2.531,2.531,0,0,0,.017.733,1.58,1.58,0,0,0,.962,1.038,1.12,1.12,0,0,0,.437.147q5.26.012,10.519.006a.347.347,0,0,0,.152-.022,6.764,6.764,0,0,0,.637-.344,1.193,1.193,0,0,0,.613-1.165c-.067-.8-.094-1.611-.157-2.415-.081-1.026-.181-2.051-.273-3.076q-.129-1.446-.256-2.892-.134-1.524-.265-3.049c-.015-.173-.036-.345-.054-.515H11.41c0,.064,0,.12,0,.176-.009.494-.011.988-.03,1.481a.419.419,0,0,1-.28.423.509.509,0,0,1-.518-.112.519.519,0,0,1-.136-.42c-.005-.466,0-.931-.006-1.4,0-.05,0-.1,0-.15H4.822c0,.1,0,.192,0,.282-.006.475-.009.95-.025,1.424a.453.453,0,0,1-.605.374.458.458,0,0,1-.308-.438c-.013-.389-.021-.779-.029-1.168,0-.156,0-.311,0-.485M4.8,3.732h5.656A2.9,2.9,0,0,0,9.088,1.37a2.646,2.646,0,0,0-2.979.04A2.864,2.864,0,0,0,4.8,3.732" transform="translate(-0.001 0)" fill="#fff"/><path d="M153.452,306.2a1.355,1.355,0,0,1,.166-.26c.9-.926,1.8-1.854,2.711-2.768.89-.89,1.8-1.763,2.7-2.642a2.182,2.182,0,0,1,.252-.209.385.385,0,0,1,.515.063.4.4,0,0,1,.091.513,3.857,3.857,0,0,1-.395.467q-2.5,2.5-5,4.989c-.091.09-.195.167-.289.253a.418.418,0,0,1-.488.066c-.178-.08-.213-.252-.255-.471" transform="translate(-149.077 -291.688)" fill="#fff"/><path d="M284.076,422.794a1.6,1.6,0,0,1,1.6-1.6,1.643,1.643,0,0,1,1.652,1.64,1.6,1.6,0,0,1-1.622,1.612,1.577,1.577,0,0,1-1.63-1.65m2.284,0a.648.648,0,0,0-.64-.64.7.7,0,0,0-.714.678.68.68,0,0,0,.662.678.665.665,0,0,0,.692-.716" transform="translate(-275.977 -409.185)" fill="#fff"/><path d="M138.69,296.066a1.62,1.62,0,0,1-.049-3.24,1.62,1.62,0,1,1,.049,3.24m-.652-1.639a.662.662,0,0,0,.664.713.691.691,0,0,0,.675-.685.679.679,0,0,0-.668-.671.616.616,0,0,0-.671.643" transform="translate(-133.157 -284.478)" fill="#fff"/></g></svg>