<svg xmlns="http://www.w3.org/2000/svg" xmlns:xlink="http://www.w3.org/1999/xlink" width="18.281" height="18.256" viewBox="0 0 18.281 18.256"><defs><clipPath id="a"><rect width="18.281" height="18.256" fill="#fff"/></clipPath></defs><g clip-path="url(#a)"><path d="M4.112,1.733a5.463,5.463,0,0,1,.693.3c.295.178.561.4.849.595a.317.317,0,0,0,.25.019c.291-.11.573-.245.863-.357A.211.211,0,0,0,6.934,2.1c.051-.355.12-.708.18-1.063A1.205,1.205,0,0,1,8.279.009q.824-.019,1.65,0a1.2,1.2,0,0,1,1.166,1.005c.065.353.115.71.186,1.061a.292.292,0,0,0,.149.177c.3.136.616.246.917.385a.23.23,0,0,0,.272-.03q.426-.313.862-.613a1.189,1.189,0,0,1,1.563.126q.568.554,1.123,1.122A1.193,1.193,0,0,1,16.3,4.807c-.2.3-.422.583-.623.88a.267.267,0,0,0-.029.21c.116.311.24.619.377.92a.3.3,0,0,0,.189.145c.339.068.68.121,1.022.175a1.19,1.19,0,0,1,1.043,1.191q.011.794,0,1.589a1.2,1.2,0,0,1-1.072,1.21c-.342.052-.684.106-1.023.173a.276.276,0,0,0-.167.143c-.133.3-.257.6-.369.9a.291.291,0,0,0,.024.229c.2.294.407.576.609.865a1.2,1.2,0,0,1-.132,1.6q-.542.552-1.095,1.093a1.2,1.2,0,0,1-1.6.13c-.283-.2-.566-.4-.844-.6a.228.228,0,0,0-.272-.028c-.275.13-.559.243-.843.351-.1.039-.164.077-.182.2-.054.375-.118.75-.2,1.121a1.2,1.2,0,0,1-1.185.954c-.5,0-1,0-1.507,0a1.236,1.236,0,0,1-1.3-1.121c-.049-.322-.1-.643-.166-.962a.289.289,0,0,0-.143-.179c-.277-.126-.566-.226-.842-.354a.217.217,0,0,0-.255.026c-.29.212-.584.419-.878.626a1.2,1.2,0,0,1-1.565-.123q-.568-.554-1.124-1.121a1.186,1.186,0,0,1-.12-1.579c.191-.272.383-.544.584-.808a.263.263,0,0,0,.033-.324,7.333,7.333,0,0,1-.346-.823.238.238,0,0,0-.214-.176c-.381-.064-.765-.117-1.141-.2A1.168,1.168,0,0,1,.009,9.98C0,9.438,0,8.894.009,8.351a1.21,1.21,0,0,1,1.06-1.182c.335-.053.67-.1,1-.172a.3.3,0,0,0,.184-.147c.133-.3.253-.6.366-.9A.268.268,0,0,0,2.6,5.736c-.2-.3-.415-.587-.623-.88a1.209,1.209,0,0,1,.134-1.613q.544-.55,1.1-1.092a1.176,1.176,0,0,1,.877-.363l.024-.055m.031,13.586c.418-.3.839-.594,1.257-.9a.686.686,0,0,1,.761-.046,12.62,12.62,0,0,0,1.387.57.728.728,0,0,1,.557.642q.094.644.209,1.285c.011.062.082.16.127.161.494.012.989.007,1.484.007a1.312,1.312,0,0,0,.045-.151c.07-.421.147-.842.2-1.265a.749.749,0,0,1,.585-.687,8.046,8.046,0,0,0,1.329-.55.763.763,0,0,1,.918.062c.38.292.781.558,1.165.83l1.133-1.13c-.288-.4-.573-.817-.87-1.22a.717.717,0,0,1-.05-.814c.226-.475.416-.968.6-1.461a.661.661,0,0,1,.55-.474c.507-.08,1.013-.17,1.522-.256v-1.6c-.516-.088-1.016-.177-1.518-.256a.669.669,0,0,1-.556-.493c-.18-.488-.372-.973-.6-1.442a.714.714,0,0,1,.048-.813c.3-.4.583-.815.853-1.194L14.162,2.986c-.412.295-.831.594-1.249.895a.667.667,0,0,1-.726.039c-.511-.229-1.032-.438-1.557-.636a.641.641,0,0,1-.454-.5c-.045-.233-.077-.468-.117-.7-.049-.285-.1-.57-.149-.854h-1.6c-.088.515-.177,1.021-.261,1.528a.659.659,0,0,1-.476.548,11.5,11.5,0,0,0-1.385.574.785.785,0,0,1-.954-.052c-.373-.29-.768-.551-1.122-.8L2.971,4.154c.282.4.561.807.857,1.2a.726.726,0,0,1,.052.831A14.035,14.035,0,0,0,3.308,7.6a.671.671,0,0,1-.557.517c-.507.082-1.012.172-1.535.262,0,.5,0,1,.006,1.493,0,.042.087.109.141.119.467.087.935.165,1.4.243a.663.663,0,0,1,.554.5A5.655,5.655,0,0,0,3.8,11.908a.988.988,0,0,1-.106,1.337,10.816,10.816,0,0,0-.674.935l1.127,1.138" transform="translate(0 0)" fill="#fff"/><path d="M134.422,130.06a3.993,3.993,0,1,1-3.963-4,4,4,0,0,1,3.963,4m-4.005,2.769a2.777,2.777,0,1,0-2.78-2.786,2.783,2.783,0,0,0,2.78,2.786" transform="translate(-121.283 -120.924)" fill="#fff"/></g></svg>