<svg xmlns="http://www.w3.org/2000/svg" xmlns:xlink="http://www.w3.org/1999/xlink" width="20.708" height="16.956" viewBox="0 0 20.708 16.956"><defs><clipPath id="a"><rect width="20.708" height="16.956" fill="#fff"/></clipPath></defs><g clip-path="url(#a)"><path d="M152.311,29.653c-.325.331-.594.623-.882.9a.8.8,0,0,1-1.354-.378.74.74,0,0,1,.2-.746c.648-.659,1.294-1.321,1.963-1.958a1.277,1.277,0,0,1,1.795.035c.632.62,1.255,1.249,1.876,1.879a.806.806,0,0,1,.022,1.174.817.817,0,0,1-1.176-.044c-.261-.258-.512-.525-.768-.788l-.06.024v.263c0,2.6.016,5.194-.005,7.79a4.857,4.857,0,0,1-2.477,4.341,4.607,4.607,0,0,1-2.417.67q-3.063.01-6.126,0a.8.8,0,0,1-.778-1.157.791.791,0,0,1,.79-.454q2.127.008,4.254,0c.731,0,1.464.042,2.194-.031a3.35,3.35,0,0,0,2.918-2.923,6.947,6.947,0,0,0,.034-.715q0-3.791,0-7.582v-.3" transform="translate(-135.464 -25.86)" fill="#fff"/><path d="M2.247,13.065q0-1.953,0-3.906c0-1.4-.008-2.8,0-4.207A4.976,4.976,0,0,1,6.181.116,5.623,5.623,0,0,1,7.3,0c1.988,0,3.976,0,5.964,0a.807.807,0,0,1,.785,1.156.789.789,0,0,1-.785.462c-2,0-3.992-.017-5.987,0A3.281,3.281,0,0,0,4.133,3.676a2.943,2.943,0,0,0-.266,1.232q-.01,4.068,0,8.137a.677.677,0,0,0,.018.085c.278-.278.542-.54.8-.8a.9.9,0,0,1,.445-.271A.805.805,0,0,1,6,12.422a.763.763,0,0,1-.08.942c-.668.683-1.337,1.365-2.03,2.022a1.267,1.267,0,0,1-1.741-.058C1.508,14.7.875,14.06.244,13.417a.8.8,0,0,1-.01-1.141.793.793,0,0,1,1.156.008c.272.267.528.552.791.829l.066-.048" transform="translate(0 0)" fill="#fff"/><path d="M159.911,66.16c-.239,0-.478-.007-.717,0-.13.006-.178-.049-.193-.167a3.429,3.429,0,0,0-.064-.34,1.231,1.231,0,0,0-1.843-.767,1.243,1.243,0,0,0-.024,1.934,14.729,14.729,0,0,0,1.713.854c.243.117.486.232.726.353a2.565,2.565,0,0,1-.878,4.816c-.369.082-.371.072-.372.437a1.693,1.693,0,0,0,0,.185c.014.127-.03.179-.166.173-.223-.01-.447-.011-.67,0-.152.008-.176-.059-.179-.19-.011-.5-.015-.5-.484-.641a3.573,3.573,0,0,1-1.811-1.049,2.272,2.272,0,0,1-.49-1.618c0-.122.059-.155.173-.154q.74.006,1.48,0c.109,0,.155.038.157.144a.929.929,0,0,0,.021.113,1.454,1.454,0,0,0,2.174,1.09,1.213,1.213,0,0,0,0-2.041c-.582-.332-1.2-.586-1.808-.871a3.752,3.752,0,0,1-1.319-.872,2.524,2.524,0,0,1,1.182-4.043c.227-.074.454-.148.684-.208.131-.034.179-.1.159-.23a.09.09,0,0,1,0-.023c.018-.181-.085-.428.045-.527s.354-.032.538-.033c.427,0,.427,0,.427.418,0,.4,0,.4.386.5a2.566,2.566,0,0,1,1.922,1.663,2.848,2.848,0,0,1,.153.93c0,.12-.043.163-.162.16-.254-.006-.509,0-.763,0" transform="translate(-147.312 -59.582)" fill="#fff"/></g></svg>